<?xml version="1.0" encoding="utf-8"?>
<!-- Generator: Adobe Illustrator 24.1.0, SVG Export Plug-In . SVG Version: 6.00 Build 0)  -->
<svg version="1.1" id="Layer_1" xmlns="http://www.w3.org/2000/svg" xmlns:xlink="http://www.w3.org/1999/xlink" x="0px" y="0px"
	 viewBox="0 0 1503.61 431.74" style="enable-background:new 0 0 1503.61 431.74;" xml:space="preserve">
<style type="text/css">
	.st0{fill:#FFFFFF;}
</style>
<g>
	<g>
		<path class="st0" d="M363.83,357.8"/>
	</g>
	<g>
		<path class="st0" d="M220.94,417.35"/>
	</g>
	<path class="st0" d="M436.81,215.87C436.81,96.84,339.97,0,220.94,0C101.91,0,5.07,96.84,5.07,215.87
		c0,47.05,14.9,91.55,43.09,129.16c-3.84,14.47-19.81,37.21-39.57,45.92c-4.86,2.14-8.14,6.78-8.55,12.07
		c-0.41,5.29,2.13,10.37,6.61,13.23c25.48,16.26,74.28,8.95,105.01-14.11c33,19.4,70.56,29.61,109.28,29.61
		c7.95,0,14.39-6.45,14.39-14.39c0-7.95-6.45-14.39-14.39-14.39c-36.74,0-72.25-10.59-102.69-30.61c-5.67-3.74-13.16-3-18,1.76
		c-13.39,13.16-33.33,20.13-50.3,21.79c15.75-16.34,26.2-36.93,27.66-52.62c0.03-0.21,0.07-0.41,0.09-0.62
		c0.01-0.12,0.04-0.26,0.05-0.39c0.02-0.33-0.03-0.64-0.03-0.97c0-0.52,0.01-1.04-0.05-1.56c-0.05-0.46-0.15-0.9-0.24-1.34
		c-0.1-0.47-0.19-0.93-0.33-1.39c-0.14-0.46-0.33-0.89-0.52-1.33c-0.18-0.42-0.35-0.84-0.57-1.24c-0.25-0.46-0.55-0.88-0.85-1.32
		c-0.18-0.27-0.32-0.56-0.52-0.81c-26.69-33.52-40.79-73.78-40.79-116.43c0-103.16,83.92-187.08,187.08-187.08
		c103.16,0,187.08,83.92,187.08,187.08c0,49.82-19.25,96.53-54.2,131.58c-18.98,17.84-39.92,23.73-57.49,16.15
		c-13.34-5.76-21.96-18.2-21.96-31.7c0-1.07-0.14-2.11-0.36-3.11v-59.85h62.96c7.95,0,14.39-6.45,14.39-14.39V177.2
		c0-7.95-6.45-14.39-14.39-14.39h-62.96V99.85c0-7.95-6.45-14.39-14.39-14.39h-77.35c-7.95,0-14.39,6.45-14.39,14.39v62.96h-62.96
		c-7.95,0-14.39,6.45-14.39,14.39v77.35c0,7.95,6.45,14.39,14.39,14.39h62.96v62.96c0,7.95,6.45,14.39,14.39,14.39h65.07
		c4.66,19.08,18.38,35.44,37.58,43.73c8.64,3.73,17.74,5.55,26.99,5.55c21,0,42.8-9.4,61.79-27.3c0.06-0.05,0.09-0.12,0.15-0.17
		c0.05-0.05,0.11-0.08,0.16-0.13C414.5,327.48,436.81,273.46,436.81,215.87z M245.23,317.5h-48.57v-62.96
		c0-7.95-6.45-14.39-14.39-14.39h-62.96v-48.56h62.96c7.95,0,14.39-6.45,14.39-14.39v-62.96h48.57v62.96
		c0,7.95,6.45,14.39,14.39,14.39h62.96v48.56h-62.96c-7.95,0-14.39,6.45-14.39,14.39V317.5z"/>
</g>
<g>
	<path class="st0" d="M580.92,83.09c15.46,0,28.64,3.94,39.55,11.82c10.91,7.88,17.81,18.57,20.69,32.05l-30.92,6.37
		c-1.06-7.12-4.4-12.84-10-17.16c-5.61-4.32-12.28-6.48-20-6.48c-7.43,0-13.41,1.82-17.96,5.46c-4.55,3.64-6.82,8.11-6.82,13.41
		c0,8.34,5.08,13.49,15.23,15.46l32.74,6.59c12.58,2.73,22.39,7.77,29.44,15.12c7.05,7.35,10.57,16.86,10.57,28.53
		c0,14.7-5.53,26.37-16.59,35.01c-11.06,8.64-25.69,12.96-43.87,12.96c-16.82,0-31.18-3.9-43.08-11.71
		c-11.9-7.8-18.75-18.98-20.57-33.53l32.51-6.59c3.94,16.52,15.3,24.78,34.1,24.78c8.64,0,15.3-1.82,20-5.46
		c4.7-3.64,7.05-8.26,7.05-13.87c0-4.55-1.33-8.11-3.98-10.68c-2.65-2.58-7.24-4.55-13.75-5.91l-32.28-6.14
		c-26.68-5.61-40.01-20.15-40.01-43.65c0-13.79,5.23-24.97,15.69-33.53C549.09,87.38,563.19,83.09,580.92,83.09z"/>
	<path class="st0" d="M825.75,125.38l-37.74,113.66h-27.05l-22.28-66.83l-22.51,66.83h-27.05l-37.74-113.66h29.78l22.51,69.79
		l23.19-69.79h23.41l23.19,70.02l22.5-70.02H825.75z"/>
	<path class="st0" d="M845.29,78.89c3.48-3.56,7.8-5.34,12.96-5.34c5.15,0,9.47,1.78,12.96,5.34c3.48,3.56,5.23,7.77,5.23,12.62
		c0,5-1.74,9.17-5.23,12.5c-3.49,3.33-7.81,5-12.96,5c-5.31,0-9.66-1.67-13.07-5c-3.41-3.33-5.11-7.5-5.11-12.5
		C840.06,86.66,841.8,82.45,845.29,78.89z M873.25,238.81h-30.01V125.38h30.01V238.81z"/>
	<path class="st0" d="M942.59,125.38h34.33v24.55h-34.33v88.88h-30.01v-88.88H895.3v-24.55h17.28v-20.91
		c0-13.18,4.09-23.64,12.27-31.37c8.18-7.73,19.02-11.59,32.51-11.59c7.27,0,14.02,1.44,20.23,4.32l-6.82,24.32
		c-4.09-1.36-7.88-2.05-11.37-2.05c-5,0-9.06,1.44-12.16,4.32c-3.11,2.88-4.66,6.9-4.66,12.05V125.38z"/>
	<path class="st0" d="M1068.97,208.8l8.64,25.01c-10.46,5.6-20.31,8.41-29.55,8.41c-13.94,0-24.86-3.75-32.74-11.25
		c-7.88-7.5-11.82-18.83-11.82-33.98v-47.06H964.4v-24.55h39.11V86.5h30.01v38.87h37.05v24.55h-37.05v44.78
		c0,13.04,5.53,19.55,16.59,19.55C1055.86,214.26,1062.15,212.44,1068.97,208.8z"/>
	<path class="st0" d="M1093.75,86.5h56.15c25.16,0,45.39,7.01,60.7,21.03c15.3,14.02,22.96,32.39,22.96,55.13
		c0,22.73-7.65,41.11-22.96,55.13c-15.31,14.02-35.54,21.03-60.7,21.03h-56.15V86.5z M1124.66,210.85h25.23
		c15.91,0,28.64-4.35,38.19-13.07c9.55-8.71,14.32-20.42,14.32-35.12c0-14.7-4.77-26.41-14.32-35.12
		c-9.55-8.71-22.28-13.07-38.19-13.07h-25.23V210.85z"/>
	<path class="st0" d="M1311.3,122.65c16.97,0,31.41,5.57,43.31,16.71c11.89,11.14,17.84,25.42,17.84,42.85
		c0,17.43-5.95,31.71-17.84,42.85c-11.9,11.14-26.33,16.71-43.31,16.71c-17.28,0-31.9-5.57-43.87-16.71
		c-11.97-11.14-17.96-25.42-17.96-42.85c0-17.43,5.98-31.71,17.96-42.85C1279.39,128.22,1294.02,122.65,1311.3,122.65z
		 M1311.3,216.08c8.33,0,15.76-3.14,22.28-9.43c6.51-6.29,9.77-14.44,9.77-24.44s-3.26-18.15-9.77-24.44
		c-6.52-6.29-13.94-9.43-22.28-9.43c-8.64,0-16.25,3.11-22.85,9.32c-6.59,6.22-9.89,14.4-9.89,24.55c0,10.16,3.3,18.34,9.89,24.55
		C1295.04,212.97,1302.66,216.08,1311.3,216.08z"/>
	<path class="st0" d="M1446.78,214.71c14.55,0,24.25-7.35,29.1-22.05l27.73,7.05c-3.18,12.88-10.04,23.19-20.57,30.92
		c-10.54,7.73-22.62,11.59-36.26,11.59c-16.98,0-31.34-5.61-43.08-16.82c-11.75-11.21-17.62-25.61-17.62-43.19
		c0-17.58,5.87-32.01,17.62-43.3c11.74-11.29,26.1-16.94,43.08-16.94c13.33,0,25.19,3.83,35.58,11.48
		c10.38,7.65,17.46,17.77,21.26,30.35l-28.87,8.18c-3.79-15-13.11-22.5-27.96-22.5c-9.4,0-17.01,3.03-22.85,9.09
		c-5.84,6.06-8.75,13.94-8.75,23.64c0,9.7,2.92,17.54,8.75,23.53C1429.77,211.72,1437.38,214.71,1446.78,214.71z"/>
</g>
<g>
	<path class="st0" d="M584.08,290.81l-36.6,82.25h-12.95l12.5-28.12l-23.88-54.12h12.94l17.19,40.06l17.86-40.06H584.08z"/>
	<path class="st0" d="M596.52,297.79c5.76-5.39,12.81-8.09,21.15-8.09c8.33,0,15.34,2.7,21.04,8.09c5.69,5.4,8.54,12.33,8.54,20.81
		c0,8.48-2.87,15.44-8.59,20.87c-5.73,5.43-12.72,8.15-20.98,8.15c-8.33,0-15.38-2.71-21.15-8.15c-5.77-5.43-8.65-12.39-8.65-20.87
		C587.87,310.12,590.75,303.18,596.52,297.79z M617.67,337.57c4.91,0,9.19-1.77,12.83-5.3c3.64-3.53,5.47-8.09,5.47-13.67
		c0-5.58-1.82-10.14-5.47-13.67c-3.65-3.53-7.92-5.3-12.83-5.3c-5.06,0-9.39,1.77-13,5.3c-3.61,3.53-5.41,8.09-5.41,13.67
		c0,5.58,1.8,10.14,5.41,13.67C608.28,335.8,612.61,337.57,617.67,337.57z"/>
	<path class="st0" d="M711.74,290.92v55.35h-11.61v-6.81c-4.69,5.58-11.05,8.37-19.08,8.37c-6.7,0-12.07-2.18-16.12-6.53
		c-4.06-4.35-6.08-10.02-6.08-17.02v-33.37h11.61v31.02c0,4.54,1.21,8.2,3.63,10.99c2.42,2.79,5.64,4.18,9.65,4.18
		c5.13,0,9.15-1.75,12.05-5.24s4.35-8.63,4.35-15.4v-25.56H711.74z"/>
	<path class="st0" d="M762.07,290.25c1.64,0,2.94,0.15,3.91,0.45l-0.78,11.16c-0.6-0.07-1.67-0.11-3.24-0.11
		c-6.85,0-12.05,2.21-15.62,6.64c-3.57,4.43-5.36,10.55-5.36,18.36v19.53h-11.61v-55.35h11.61v11.83
		C746.04,294.42,753.07,290.25,762.07,290.25z"/>
	<path class="st0" d="M796.5,297.79c5.76-5.39,12.81-8.09,21.15-8.09c8.33,0,15.34,2.7,21.04,8.09c5.69,5.4,8.54,12.33,8.54,20.81
		c0,8.48-2.86,15.44-8.59,20.87c-5.73,5.43-12.72,8.15-20.98,8.15c-8.33,0-15.38-2.71-21.15-8.15c-5.77-5.43-8.65-12.39-8.65-20.87
		C787.85,310.12,790.73,303.18,796.5,297.79z M817.65,337.57c4.91,0,9.19-1.77,12.83-5.3c3.64-3.53,5.47-8.09,5.47-13.67
		c0-5.58-1.83-10.14-5.47-13.67c-3.65-3.53-7.92-5.3-12.83-5.3c-5.06,0-9.39,1.77-13,5.3c-3.61,3.53-5.41,8.09-5.41,13.67
		c0,5.58,1.8,10.14,5.41,13.67C808.25,335.8,812.59,337.57,817.65,337.57z"/>
	<path class="st0" d="M890.96,289.36c6.62,0,11.98,2.18,16.07,6.53c4.09,4.35,6.14,9.99,6.14,16.91v33.48h-11.72v-31.14
		c0-4.54-1.21-8.18-3.63-10.94c-2.42-2.75-5.6-4.13-9.54-4.13c-5.13,0-9.17,1.75-12.11,5.24c-2.94,3.5-4.41,8.63-4.41,15.4v25.55
		h-11.61v-55.35h11.61v6.81C876.45,292.15,882.85,289.36,890.96,289.36z"/>
	<path class="st0" d="M939.84,260.35v70.08c0,1.93,0.67,3.5,2.01,4.69c1.34,1.19,3.05,1.79,5.13,1.79c2.01,0,4.24-0.56,6.7-1.67
		l2.23,9.71c-3.57,1.93-7.22,2.9-10.94,2.9c-4.99,0-9.02-1.53-12.11-4.58c-3.09-3.05-4.63-7.1-4.63-12.16v-70.75H939.84z"/>
	<path class="st0" d="M971.76,267.04c2.08,0,3.83,0.71,5.25,2.12c1.41,1.41,2.12,3.13,2.12,5.13c0,2.08-0.69,3.79-2.06,5.13
		c-1.38,1.34-3.14,2.01-5.3,2.01c-2.16,0-3.94-0.67-5.36-2.01c-1.41-1.34-2.12-3.05-2.12-5.13c0-2.01,0.71-3.72,2.12-5.13
		C967.81,267.75,969.6,267.04,971.76,267.04z M977.56,346.28h-11.61v-55.35h11.61V346.28z"/>
	<path class="st0" d="M1026.77,289.36c6.62,0,11.98,2.18,16.07,6.53c4.09,4.35,6.14,9.99,6.14,16.91v33.48h-11.72v-31.14
		c0-4.54-1.21-8.18-3.63-10.94c-2.42-2.75-5.6-4.13-9.54-4.13c-5.13,0-9.17,1.75-12.11,5.24c-2.94,3.5-4.41,8.63-4.41,15.4v25.55
		h-11.61v-55.35h11.61v6.81C1012.26,292.15,1018.66,289.36,1026.77,289.36z"/>
	<path class="st0" d="M1116.72,317.37v4.02h-44.86c0.52,4.99,2.38,8.97,5.58,11.94c3.2,2.98,6.92,4.46,11.16,4.46
		c7.66,0,13.09-3.2,16.29-9.6l10.38,2.23c-2.23,5.73-5.67,10.06-10.32,13c-4.65,2.94-10.1,4.41-16.35,4.41
		c-7.74,0-14.38-2.71-19.92-8.15c-5.54-5.43-8.32-12.42-8.32-20.98c0-8.63,2.77-15.68,8.32-21.15c5.54-5.47,12.33-8.2,20.37-8.2
		c7.51,0,13.93,2.62,19.25,7.87C1113.61,302.47,1116.42,309.19,1116.72,317.37z M1089.04,299.63c-3.87,0-7.44,1.19-10.71,3.57
		c-3.27,2.38-5.32,5.69-6.14,9.93h32.59c-0.89-4.39-2.75-7.74-5.58-10.04S1092.99,299.63,1089.04,299.63z"/>
	<path class="st0" d="M1200.41,260.35v85.93h-11.72v-6.81c-4.91,5.58-11.61,8.37-20.09,8.37c-7.44,0-13.88-2.75-19.31-8.26
		c-5.43-5.51-8.15-12.5-8.15-20.98c0-8.48,2.72-15.47,8.15-20.98c5.43-5.5,11.87-8.26,19.31-8.26c8.41,0,15.1,2.79,20.09,8.37
		v-37.38H1200.41z M1170.51,337.57c4.84,0,9.08-1.75,12.72-5.24c3.64-3.5,5.47-8.07,5.47-13.73c0-5.58-1.82-10.14-5.47-13.67
		c-3.65-3.53-7.89-5.3-12.72-5.3c-5.13,0-9.41,1.75-12.83,5.24c-3.42,3.5-5.13,8.07-5.13,13.73c0,5.73,1.71,10.32,5.13,13.78
		C1161.09,335.84,1165.37,337.57,1170.51,337.57z"/>
	<path class="st0" d="M1221.78,297.79c5.77-5.39,12.82-8.09,21.15-8.09c8.33,0,15.34,2.7,21.04,8.09c5.69,5.4,8.54,12.33,8.54,20.81
		c0,8.48-2.86,15.44-8.59,20.87c-5.73,5.43-12.72,8.15-20.98,8.15c-8.33,0-15.38-2.71-21.15-8.15c-5.77-5.43-8.65-12.39-8.65-20.87
		C1213.13,310.12,1216.02,303.18,1221.78,297.79z M1242.93,337.57c4.91,0,9.19-1.77,12.83-5.3c3.64-3.53,5.47-8.09,5.47-13.67
		c0-5.58-1.83-10.14-5.47-13.67c-3.65-3.53-7.92-5.3-12.83-5.3c-5.06,0-9.39,1.77-13,5.3c-3.61,3.53-5.41,8.09-5.41,13.67
		c0,5.58,1.8,10.14,5.41,13.67C1233.54,335.8,1237.87,337.57,1242.93,337.57z"/>
	<path class="st0" d="M1309.89,337.12c3.79,0,7.12-0.98,9.99-2.96c2.86-1.97,4.97-4.85,6.31-8.65l10.71,2.79
		c-1.56,5.88-4.84,10.6-9.82,14.17c-4.99,3.57-10.71,5.36-17.19,5.36c-8.11,0-15.01-2.73-20.7-8.2s-8.54-12.48-8.54-21.04
		c0-8.48,2.85-15.47,8.54-20.98c5.69-5.5,12.59-8.26,20.7-8.26c6.32,0,11.96,1.77,16.91,5.3c4.95,3.53,8.31,8.24,10.1,14.12
		l-11.16,3.24c-1.04-3.94-2.98-6.92-5.8-8.93c-2.83-2.01-6.18-3.01-10.04-3.01c-5.13,0-9.39,1.73-12.78,5.19
		c-3.39,3.46-5.08,7.91-5.08,13.34c0,5.58,1.67,10.06,5.02,13.45C1300.4,335.43,1304.68,337.12,1309.89,337.12z"/>
	<path class="st0" d="M1383.09,333.89l3.57,9.71c-4.76,2.83-9.34,4.24-13.73,4.24c-6.18,0-11.05-1.73-14.62-5.19
		s-5.36-8.54-5.36-15.23v-26.89h-11.94v-9.6h11.94v-19.42h11.61v19.42h18.97v9.6h-18.97v26.11c0,3.35,0.82,5.9,2.46,7.64
		c1.63,1.75,3.87,2.62,6.7,2.62C1376.92,336.9,1380.04,335.9,1383.09,333.89z"/>
	<path class="st0" d="M1398.44,297.79c5.77-5.39,12.82-8.09,21.15-8.09c8.33,0,15.34,2.7,21.04,8.09c5.69,5.4,8.54,12.33,8.54,20.81
		c0,8.48-2.86,15.44-8.59,20.87c-5.73,5.43-12.72,8.15-20.98,8.15c-8.33,0-15.38-2.71-21.15-8.15c-5.77-5.43-8.65-12.39-8.65-20.87
		C1389.79,310.12,1392.67,303.18,1398.44,297.79z M1419.59,337.57c4.91,0,9.19-1.77,12.83-5.3c3.64-3.53,5.47-8.09,5.47-13.67
		c0-5.58-1.83-10.14-5.47-13.67c-3.65-3.53-7.92-5.3-12.83-5.3c-5.06,0-9.39,1.77-13,5.3c-3.61,3.53-5.41,8.09-5.41,13.67
		c0,5.58,1.8,10.14,5.41,13.67C1410.19,335.8,1414.53,337.57,1419.59,337.57z"/>
	<path class="st0" d="M1494.8,290.25c1.64,0,2.94,0.15,3.91,0.45l-0.78,11.16c-0.6-0.07-1.67-0.11-3.24-0.11
		c-6.85,0-12.05,2.21-15.62,6.64c-3.57,4.43-5.36,10.55-5.36,18.36v19.53h-11.61v-55.35h11.61v11.83
		C1478.77,294.42,1485.8,290.25,1494.8,290.25z"/>
</g>
</svg>
