<svg width="46" height="46" viewBox="0 0 46 46" fill="none" xmlns="http://www.w3.org/2000/svg">
<path d="M45.909 22.9963C45.909 10.365 35.7497 0.0908203 23.2642 0.0908203C10.7823 0.0908203 0.623072 10.365 0.623072 22.9963C0.623072 27.9899 2.18466 32.7112 5.14269 36.7025C4.74063 38.2387 3.06417 40.6502 0.992826 41.5763C0.483068 41.8051 0.138443 42.2954 0.0953645 42.8583C0.0522863 43.4212 0.317935 43.9587 0.788205 44.2638C3.45905 45.9889 8.57818 45.2153 11.8019 42.7675C15.2625 44.8267 19.2041 45.909 23.2642 45.909C24.0971 45.909 24.7756 45.2262 24.7756 44.38C24.7756 43.5375 24.1007 42.8511 23.2642 42.8511C19.4123 42.8511 15.6861 41.7289 12.4947 39.6043C11.8988 39.2084 11.1162 39.2847 10.6064 39.7895C9.20281 41.1841 7.10993 41.925 5.32936 42.1029C6.98069 40.3706 8.0756 38.1843 8.22996 36.5209C8.23355 36.4991 8.23714 36.4773 8.23714 36.4555C8.23714 36.441 8.24073 36.4265 8.24432 36.4156C8.24791 36.3793 8.24073 36.3466 8.24073 36.3139C8.24073 36.2594 8.24073 36.205 8.23714 36.1469C8.23355 36.0996 8.22278 36.0524 8.21201 36.0052C8.20124 35.9544 8.19406 35.9072 8.17611 35.8563C8.16175 35.8091 8.14021 35.7619 8.12226 35.7147C8.10432 35.6711 8.08637 35.6275 8.06124 35.5839C8.03611 35.5367 8.0038 35.4895 7.97149 35.4459C7.95354 35.4169 7.93918 35.3878 7.91764 35.3588C5.12115 31.796 3.64213 27.5251 3.64213 22.9963C3.64213 12.0502 12.4444 3.14512 23.2642 3.14512C34.084 3.14512 42.8864 12.0502 42.8864 22.9963C42.8864 28.2841 40.8689 33.2378 37.2 36.9567C35.2077 38.8489 33.0143 39.4735 31.1691 38.6709C29.769 38.0608 28.8644 36.7388 28.8644 35.3079C28.8644 35.1953 28.85 35.0827 28.8285 34.9774V28.6291H35.4338C36.2667 28.6291 36.9452 27.9464 36.9452 27.1002V18.8924C36.9452 18.0498 36.2703 17.3634 35.4338 17.3634H28.8285V10.681C28.8285 9.83844 28.1536 9.15204 27.3172 9.15204H19.2041C18.3713 9.15204 17.6928 9.83481 17.6928 10.681V17.3634H11.0875C10.2546 17.3634 9.57615 18.0462 9.57615 18.8924V27.1002C9.57615 27.9427 10.251 28.6291 11.0875 28.6291H17.6928V35.3115C17.6928 36.1541 18.3677 36.8405 19.2041 36.8405H26.0284C26.5166 38.8634 27.9562 40.603 29.9701 41.4819C30.8747 41.8778 31.8296 42.0702 32.8025 42.0702C35.003 42.0702 37.2934 41.0715 39.2821 39.1721C39.2893 39.1648 39.2929 39.1612 39.2965 39.1539C39.3001 39.1503 39.3073 39.1467 39.3145 39.1394C43.5684 34.8394 45.909 29.1085 45.909 22.9963ZM25.813 33.7826H20.719V27.1002C20.719 26.2576 20.0441 25.5712 19.2077 25.5712H12.6024V20.4214H19.2077C20.0406 20.4214 20.719 19.7386 20.719 18.8924V12.21H25.813V18.8924C25.813 19.735 26.4879 20.4214 27.3244 20.4214H33.9297V25.5748H27.3244C26.4915 25.5748 25.813 26.2576 25.813 27.1038V33.7826Z" fill="white"/>
</svg>
